<?xml version="1.0" encoding="utf-8"?>
<!-- Generator: Adobe Illustrator 26.3.1, SVG Export Plug-In . SVG Version: 6.00 Build 0)  -->
<svg version="1.1" id="Layer_1" xmlns="http://www.w3.org/2000/svg" xmlns:xlink="http://www.w3.org/1999/xlink" x="0px" y="0px"
	 viewBox="0 0 166 49" style="enable-background:new 0 0 166 49;" xml:space="preserve">
<style type="text/css">
	.st0{fill:#FFFFFF;}
</style>
<g>
	<g>
		<path class="st0" d="M63.2,25.3c0-1.4,0.3-2.8,0.8-4.2c0.5-1.4,1.3-2.6,2.3-3.8c1-1.1,2.2-2,3.6-2.7s3.1-1,4.9-1
			c2.2,0,4,0.5,5.6,1.4s2.7,2.2,3.5,3.7l-3.5,2.4c-0.4-0.9-0.9-1.6-1.6-2.1c-0.6-0.5-1.3-0.9-2-1.1s-1.4-0.3-2.1-0.3
			c-1.1,0-2.1,0.2-3,0.7s-1.6,1.1-2.1,1.8c-0.6,0.7-1,1.6-1.3,2.5s-0.4,1.8-0.4,2.8s0.2,2,0.5,3s0.8,1.8,1.4,2.5s1.3,1.3,2.2,1.7
			c0.8,0.4,1.8,0.6,2.8,0.6c0.7,0,1.5-0.1,2.2-0.4c0.7-0.2,1.4-0.6,2.1-1.2c0.6-0.5,1.1-1.2,1.5-2l3.7,2.1c-0.5,1.2-1.2,2.2-2.3,3
			c-1,0.8-2.2,1.4-3.5,1.8c-1.3,0.4-2.6,0.6-3.9,0.6c-1.7,0-3.2-0.3-4.6-1s-2.6-1.6-3.6-2.8s-1.8-2.5-2.3-3.9
			C63.5,28.2,63.2,26.8,63.2,25.3z"/>
		<path class="st0" d="M86.8,13.1h4.4v18.6c0,0.8,0.1,1.3,0.4,1.6s0.6,0.4,1.1,0.4c0.4,0,0.7,0,1.1-0.1s0.7-0.2,1-0.3l0.6,3.4
			c-0.6,0.3-1.3,0.5-2.1,0.7s-1.5,0.2-2.1,0.2c-1.4,0-2.5-0.4-3.2-1.1c-0.8-0.7-1.1-1.8-1.1-3.2V13.1H86.8z"/>
		<path class="st0" d="M105.3,37.5c-1.4,0-2.7-0.2-3.8-0.7s-2.1-1.1-2.9-1.9c-0.8-0.8-1.4-1.8-1.8-2.8c-0.4-1.1-0.6-2.2-0.6-3.4
			c0-1.2,0.2-2.3,0.6-3.4s1-2,1.8-2.8s1.7-1.5,2.9-1.9c1.1-0.5,2.4-0.7,3.8-0.7s2.7,0.2,3.8,0.7c1.1,0.5,2.1,1.1,2.9,1.9
			s1.4,1.8,1.8,2.8c0.4,1.1,0.6,2.2,0.6,3.4c0,1.2-0.2,2.3-0.6,3.4c-0.4,1.1-1,2-1.8,2.8s-1.7,1.5-2.9,1.9S106.7,37.5,105.3,37.5z
			 M100.8,28.7c0,1,0.2,1.9,0.6,2.6c0.4,0.8,0.9,1.4,1.6,1.8s1.5,0.6,2.3,0.6s1.6-0.2,2.3-0.7c0.7-0.4,1.2-1,1.6-1.8
			s0.6-1.6,0.6-2.6s-0.2-1.8-0.6-2.6s-1-1.4-1.6-1.8c-0.7-0.4-1.4-0.6-2.3-0.6s-1.6,0.2-2.3,0.7c-0.7,0.4-1.2,1-1.6,1.8
			C101,26.8,100.8,27.7,100.8,28.7z"/>
		<path class="st0" d="M117.2,30.8V20.1h4.4v9.7c0,1.3,0.2,2.3,0.7,3s1.2,1,2.1,1c0.6,0,1.1-0.1,1.7-0.3s1.1-0.6,1.6-1
			c0.5-0.5,0.9-1,1.2-1.7V20.1h4.4v12.2c0,0.5,0.1,0.8,0.2,1c0.2,0.2,0.4,0.3,0.8,0.4v3.6c-0.4,0.1-0.8,0.1-1.1,0.1s-0.6,0-0.8,0
			c-0.8,0-1.4-0.2-1.9-0.5c-0.5-0.4-0.8-0.9-0.9-1.5l-0.1-1.4c-0.8,1.2-1.8,2-3,2.6s-2.5,0.9-4,0.9c-1.8,0-3.1-0.6-4.1-1.7
			C117.6,34.7,117.2,33,117.2,30.8z"/>
		<path class="st0" d="M136.7,28.7c0-1.7,0.3-3.1,1-4.5s1.6-2.4,2.7-3.2s2.5-1.2,4-1.2c1.3,0,2.4,0.3,3.4,0.9s1.8,1.4,2.4,2.4v-10
			h4.4v19.1c0,0.5,0.1,0.8,0.2,1c0.2,0.2,0.4,0.3,0.8,0.4v3.6c-0.8,0.2-1.4,0.2-1.9,0.2c-0.8,0-1.4-0.2-2-0.6
			c-0.5-0.4-0.8-0.9-0.9-1.6l-0.1-1.1c-0.6,1.1-1.5,1.9-2.6,2.5s-2.2,0.9-3.4,0.9s-2.3-0.2-3.3-0.7s-1.9-1.1-2.6-1.9
			c-0.7-0.8-1.3-1.7-1.7-2.8S136.7,29.9,136.7,28.7z M150.2,30.9v-4c-0.2-0.6-0.6-1.2-1.1-1.7s-1-0.9-1.6-1.2
			c-0.6-0.3-1.2-0.4-1.8-0.4c-0.7,0-1.3,0.1-1.8,0.4s-1,0.7-1.4,1.1s-0.7,1-0.9,1.7s-0.3,1.3-0.3,2s0.1,1.3,0.3,2
			c0.2,0.6,0.6,1.1,1,1.6c0.4,0.5,1,0.8,1.5,1.1c0.6,0.3,1.2,0.4,1.9,0.4c0.4,0,0.8-0.1,1.3-0.2s0.8-0.3,1.2-0.6
			c0.4-0.2,0.7-0.5,1-0.9C149.8,31.7,150.1,31.3,150.2,30.9z"/>
	</g>
	<g>
		<g>
			<path class="st0" d="M54.1,21.2c0-4-2.9-7.3-6.8-8c-1.2-5.2-5.9-9-11.4-9c-4.9,0-9.3,3.1-11,7.7c-5.7,1.3-10.3,5.9-11.5,11.7
				c-5.1,0.6-9,5-9,10.2c0,5.7,4.6,10.3,10.3,10.3h27.1c5.7,0,10.3-4.6,10.3-10.3c0-2.1-0.7-4.1-1.8-5.8
				C52.7,26.6,54.1,24.1,54.1,21.2z M35.9,7.3c4.4,0,8.1,3.3,8.6,7.6l0.2,1.4H46c2.8,0,5,2.2,5,5c0,1.9-1.1,3.6-2.8,4.5
				c-1.4-1.1-3.2-1.9-5.1-2.2c-1.4-6.9-7.5-12-14.7-12.1C30,8.9,32.8,7.3,35.9,7.3z M41.9,41H14.8c-4,0-7.2-3.2-7.2-7.2
				s3.2-7.2,7.2-7.2h1.4l0.2-1.4c0.7-6.1,5.9-10.7,12-10.7s11.3,4.6,12,10.7l0.2,1.4H42c4,0,7.2,3.2,7.2,7.2S45.9,41,41.9,41z"/>
		</g>
	</g>
</g>
</svg>
